<svg id="Layer_1" data-name="Layer 1" xmlns="http://www.w3.org/2000/svg" xmlns:xlink="http://www.w3.org/1999/xlink" viewBox="0 0 989.57 655">
  <defs>
    <style>
      .cls-1 {
        fill: url(#radial-gradient);
      }

      .cls-2 {
        fill: #fff;
      }
    </style>
    <radialGradient id="radial-gradient" cx="504.02" cy="327.5" r="399.82" gradientUnits="userSpaceOnUse">
      <stop offset="0" stop-color="#8c34e2"/>
      <stop offset="1" stop-color="#260b4d"/>
    </radialGradient>
  </defs>
  <title>split-front</title>
  <g>
    <path class="cls-1" d="M964.94,0A631.37,631.37,0,0,0,693,216.35C616.5,323.43,576.07,449.82,576.07,581.86A636.74,636.74,0,0,0,580.28,655H43.09a898,898,0,0,0,175.45-61.6,905.58,905.58,0,0,0,221.53-148A908.57,908.57,0,0,0,608.76,240.11,899.32,899.32,0,0,0,709.19,0Z"/>
    <path class="cls-2" d="M709.19,0A899.32,899.32,0,0,1,608.76,240.11,908.57,908.57,0,0,1,440.07,445.37a905.58,905.58,0,0,1-221.53,148A898,898,0,0,1,43.09,655H0a888.77,888.77,0,0,0,214.7-69.74A896.71,896.71,0,0,0,434,438.7,899,899,0,0,0,601,235.47,890.07,890.07,0,0,0,699.9,0Z"/>
    <path class="cls-2" d="M989.57,0A622.17,622.17,0,0,0,700.32,221.58C624.92,327.12,585.07,451.7,585.07,581.86A627.75,627.75,0,0,0,589.34,655h-9.06a636.74,636.74,0,0,1-4.21-73.14c0-132,40.43-258.43,116.92-365.51A631.37,631.37,0,0,1,964.94,0Z"/>
  </g>
</svg>
